<svg viewBox="0 0 309 62" fill="none" xmlns="http://www.w3.org/2000/svg"><g filter="url(#a)"><path fill-rule="evenodd" clip-rule="evenodd" d="M261.336 30.966c-8.605 1.689-16.633 3.023-33.595 5.576-19.888 2.996-28.289 4.036-37.063 4.59-3.192.202-4.005.44-7.056 2.065-16.253 8.66-47.044 12.748-74.61 9.91-28.164-2.902-54.794-9.63-83.825-21.18C14.954 27.856 4.29 21.679 4.016 19.664c-.071-.516.046-.466 1.423.618 11.201 8.82 53.357 22.126 83.61 26.39 25.479 3.593 41.106 4 59.99 1.568 10.109-1.304 26.277-5.115 26.975-6.36.08-.142.057-.21-.062-.184-1.141.265-14.898-.367-20.256-.93-17.926-1.884-30.867-5.89-40.99-12.694C98.27 17.024 106.863 2.002 130.613.263c17.297-1.266 35.242 2.057 50.965 9.435 14.534 6.823 19.282 16.709 12.319 25.65l-.923 1.185.749-.008c2.881-.035 16.447-1.765 31.389-4.003 27.776-4.162 38.322-6.126 58.062-10.815 10.6-2.518 11.844-2.776 14.03-2.908a53.153 53.153 0 0 0 4.843-.565c2.032-.35 2.311-.362 1.658-.064-.432.197-2.504 1.238-4.605 2.314-4.981 2.552-5.591 2.806-9.388 3.936-3.669 1.09-21.25 5.147-28.376 6.546Zm43.332-13.461c.107-.09.248-.115.312-.056.063.059-.026.13-.197.162-.19.032-.235-.01-.115-.108v.002ZM188.394 35.339c10.063-8.212 5.546-16.32-13.223-23.736-12.527-4.952-24.874-7.415-37.875-7.559-24.236-.268-36.085 10.115-22.914 20.081 12.91 9.767 35.459 14.311 66.127 13.327 4.904-.157 5.773-.39 7.885-2.113Z" fill="#047EC3" fill-opacity=".62" shape-rendering="crispEdges"/></g><defs><filter id="a" x="0" y="0" width="309" height="62" filterUnits="userSpaceOnUse" color-interpolation-filters="sRGB"><feFlood flood-opacity="0" result="BackgroundImageFix"/><feColorMatrix in="SourceAlpha" values="0 0 0 0 0 0 0 0 0 0 0 0 0 0 0 0 0 0 127 0" result="hardAlpha"/><feOffset dy="4"/><feGaussianBlur stdDeviation="2"/><feComposite in2="hardAlpha" operator="out"/><feColorMatrix values="0 0 0 0 0 0 0 0 0 0 0 0 0 0 0 0 0 0 0.25 0"/><feBlend in2="BackgroundImageFix" result="effect1_dropShadow_2_13"/><feBlend in="SourceGraphic" in2="effect1_dropShadow_2_13" result="shape"/></filter></defs></svg>